<?xml version="1.0" standalone="no"?>
<!DOCTYPE svg PUBLIC "-//W3C//DTD SVG 20010904//EN"
 "http://www.w3.org/TR/2001/REC-SVG-20010904/DTD/svg10.dtd">
<svg version="1.0" xmlns="http://www.w3.org/2000/svg"
 width="500.000000pt" height="500.000000pt" viewBox="0 0 500.000000 500.000000"
 preserveAspectRatio="xMidYMid meet">

<g transform="translate(0.000000,500.000000) scale(0.100000,-0.100000)"
fill="#000000" stroke="none">
<path d="M2157 3023 c-11 -10 -8 -101 3 -108 6 -4 10 17 10 54 0 62 -1 66 -13
54z"/>
<path d="M1600 3000 c-9 -16 -6 -22 15 -36 30 -20 33 -38 5 -31 -26 7 -36 -10
-12 -18 29 -9 52 5 52 30 0 14 -7 25 -20 28 -11 3 -20 10 -20 16 0 6 9 11 20
11 11 0 20 5 20 10 0 18 -49 11 -60 -10z"/>
<path d="M2060 2971 c0 -51 16 -79 22 -39 2 15 11 24 26 26 50 7 33 62 -19 62
-28 0 -29 -2 -29 -49z m51 14 c-1 -15 -24 -12 -29 3 -3 9 2 13 12 10 10 -1 17
-7 17 -13z"/>
<path d="M2630 2974 c-25 -57 -25 -72 -2 -51 23 21 48 22 56 1 3 -8 10 -13 15
-9 11 6 -27 105 -41 105 -5 0 -18 -21 -28 -46z m40 -15 c0 -5 -4 -9 -10 -9 -5
0 -10 7 -10 16 0 8 5 12 10 9 6 -3 10 -10 10 -16z"/>
<path d="M2964 2995 c-20 -30 -11 -62 21 -77 52 -23 99 46 59 86 -23 24 -61
20 -80 -9z m78 -10 c10 -22 9 -29 -10 -48 -18 -17 -26 -19 -40 -11 -21 14 -28
50 -12 70 19 22 49 17 62 -11z"/>
<path d="M2991 2970 c-1 -26 2 -31 9 -20 6 10 10 11 10 3 0 -24 15 -13 16 12
1 14 -2 25 -7 25 -5 0 -9 -6 -10 -12 0 -7 -4 -4 -9 7 -7 16 -9 14 -9 -15z"/>
<path d="M1956 2995 c-3 -8 -9 -15 -13 -14 -38 6 -53 -2 -53 -30 0 -39 18 -50
22 -14 2 20 9 29 26 31 18 3 22 -1 22 -21 0 -24 26 -45 39 -31 3 4 0 9 -6 11
-15 6 -17 43 -3 43 6 0 5 8 -2 20 -15 24 -24 25 -32 5z"/>
<path d="M2362 2990 c-7 -12 -8 -20 -2 -20 5 0 10 -11 10 -24 0 -29 17 -43 33
-27 8 8 8 11 -1 11 -14 0 -17 37 -3 42 4 2 1 11 -8 20 -16 16 -18 16 -29 -2z"/>
<path d="M1698 2982 c-12 -2 -18 -13 -18 -32 0 -38 18 -48 22 -13 2 16 8 28
13 28 6 0 11 -12 13 -28 4 -33 22 -26 22 9 0 13 5 24 10 24 6 0 10 -11 10 -24
0 -14 5 -28 11 -31 7 -5 9 6 7 31 -3 36 -5 38 -38 39 -19 1 -43 -1 -52 -3z"/>
<path d="M1825 2980 c-3 -6 4 -10 17 -11 21 -1 21 -1 -5 -11 -37 -13 -33 -43
7 -43 33 -1 43 17 28 51 -12 25 -36 32 -47 14z m35 -40 c0 -5 -7 -10 -16 -10
-8 0 -12 5 -9 10 3 6 10 10 16 10 5 0 9 -4 9 -10z"/>
<path d="M2205 2980 c-3 -6 4 -10 17 -11 21 -1 21 -1 -5 -11 -37 -13 -33 -43
7 -43 33 -1 43 17 28 51 -12 25 -36 32 -47 14z m35 -40 c0 -5 -7 -10 -16 -10
-8 0 -12 5 -9 10 3 6 10 10 16 10 5 0 9 -4 9 -10z"/>
<path d="M2293 2983 c-18 -3 -23 -11 -23 -33 0 -38 18 -48 22 -13 4 39 28 42
28 4 0 -17 5 -31 11 -31 13 0 8 73 -6 75 -5 1 -20 0 -32 -2z"/>
<path d="M2432 2978 c-28 -28 0 -78 35 -63 16 7 15 9 -7 15 l-25 8 28 1 c15 1
27 7 27 14 0 16 -20 37 -35 37 -6 0 -16 -5 -23 -12z m35 -14 c-3 -3 -12 -4
-19 -1 -8 3 -5 6 6 6 11 1 17 -2 13 -5z"/>
<path d="M2528 2982 c-13 -2 -18 -13 -18 -38 0 -21 4 -33 10 -29 6 3 10 17 10
30 0 13 6 25 13 28 17 6 5 14 -15 9z"/>
<path d="M2748 2983 c-15 -4 -18 -15 -17 -56 1 -29 4 -42 6 -30 3 16 11 22 25
20 27 -3 47 27 32 50 -12 19 -22 22 -46 16z m28 -24 c10 -17 -13 -36 -27 -22
-12 12 -4 33 11 33 5 0 12 -5 16 -11z"/>
<path d="M2838 2983 c-14 -3 -18 -15 -18 -54 0 -27 5 -49 10 -49 6 0 10 9 10
21 0 11 4 18 9 15 30 -19 60 34 34 59 -15 16 -16 16 -45 8z m37 -33 c0 -8 -8
-16 -17 -18 -13 -2 -18 3 -18 18 0 15 5 20 18 18 9 -2 17 -10 17 -18z"/>
<path d="M3135 2955 c-8 -14 -22 -36 -30 -50 -8 -13 -15 -29 -15 -35 0 -7 193
-10 600 -10 l600 0 0 -485 0 -485 -1453 0 -1452 0 -14 -22 c-8 -13 -23 -38
-34 -55 l-19 -33 1541 0 1541 0 -2 598 -3 597 -622 3 -622 2 -16 -25z"/>
<path d="M1214 2903 c-6 -5 -16 -18 -22 -29 -10 -19 -9 -23 8 -27 11 -3 20
-13 20 -23 0 -10 -36 -106 -79 -213 -96 -238 -96 -235 -81 -272 14 -34 64 -52
108 -39 40 11 86 36 101 54 16 19 31 21 31 3 0 -18 40 -53 68 -60 28 -7 89 10
121 33 24 17 25 16 45 -6 33 -37 105 -37 158 0 l36 24 19 -26 c17 -22 26 -26
73 -25 39 1 57 5 67 19 17 23 17 45 -1 38 -8 -3 -17 0 -22 7 -5 8 -3 10 7 4
12 -8 12 -6 1 8 -12 14 -7 33 34 132 26 64 55 120 65 125 26 14 59 12 59 -3 0
-7 -20 -62 -45 -123 -24 -60 -45 -119 -45 -132 0 -80 88 -101 186 -43 33 20
34 20 44 1 24 -45 101 -45 176 -1 33 20 34 20 44 1 23 -43 103 -44 176 -1 33
20 34 20 44 1 22 -41 125 -45 195 -8 33 18 92 78 117 119 20 32 128 269 128
280 0 5 -26 9 -59 9 l-58 0 -38 -82 c-64 -139 -95 -220 -95 -244 0 -26 -1 -26
-43 -29 -28 -2 -28 -1 -22 39 4 23 22 78 41 124 41 100 50 165 26 184 -15 11
-16 11 -7 -2 9 -14 8 -14 -5 0 -22 23 -108 20 -126 -5 -18 -24 -18 -45 0 -45
29 0 26 -21 -19 -136 -48 -124 -64 -144 -106 -142 -27 2 -27 2 -14 43 7 22 27
73 43 113 17 40 33 92 36 115 5 41 -8 72 -25 61 -5 -3 -9 -1 -9 3 0 5 -23 9
-51 8 -38 -1 -55 -6 -65 -20 -20 -27 -17 -45 6 -45 29 0 26 -19 -26 -141 -36
-86 -52 -113 -74 -124 -17 -9 -37 -12 -48 -7 -19 7 -16 17 51 180 l71 172 42
0 c33 0 46 5 58 22 27 38 20 48 -29 48 -43 0 -45 1 -35 21 7 11 9 23 7 26 -10
9 -122 -17 -133 -32 -6 -8 -20 -15 -30 -15 -25 0 -38 -10 -53 -37 -15 -30 -14
-33 14 -33 14 0 25 -4 25 -9 0 -5 -30 -79 -66 -165 -54 -129 -71 -159 -94
-171 -17 -9 -37 -12 -49 -7 -18 7 -17 12 25 115 49 117 58 174 34 195 -11 10
-11 11 -1 6 9 -4 12 -3 7 4 -4 6 -14 8 -23 5 -10 -4 -14 -2 -9 5 11 18 -88 6
-132 -17 -35 -18 -41 -18 -46 -5 -4 10 -2 13 6 8 7 -4 8 -3 4 4 -4 6 -14 8
-23 5 -10 -4 -14 -2 -10 4 5 8 -10 10 -45 9 -39 -2 -56 -8 -70 -26 -19 -23
-16 -40 7 -40 27 0 24 -20 -20 -126 -49 -119 -70 -147 -114 -150 -26 -2 -29 1
-25 21 2 13 31 87 63 164 32 77 56 143 53 146 -9 9 -103 5 -123 -5 -15 -8 -21
-7 -25 3 -4 10 -19 14 -53 12 -115 -6 -213 -99 -269 -253 -24 -65 -59 -98 -92
-87 -11 4 -20 11 -20 16 0 6 33 92 74 192 82 202 100 257 84 257 -6 0 -8 6 -5
14 3 8 0 18 -6 23 -15 11 -109 15 -123 6z m406 -243 c0 -6 -22 -65 -49 -133
-53 -130 -77 -158 -130 -153 -23 3 -26 7 -25 44 1 54 64 181 109 221 35 30 95
44 95 21z"/>
<path d="M935 2879 c-137 -10 -181 -24 -216 -72 -49 -67 -36 -85 29 -42 20 13
57 31 82 40 l45 15 -25 -20 c-14 -11 -32 -22 -41 -25 -21 -7 -160 -343 -167
-402 -6 -51 7 -70 53 -79 50 -9 91 3 104 32 14 32 14 33 -8 27 -31 -8 -33 12
-8 78 l24 63 60 -3 c110 -4 199 53 245 157 20 45 30 142 15 142 -5 0 -6 7 -3
16 4 10 2 13 -6 8 -7 -5 -9 -2 -5 9 3 9 -1 21 -11 29 -15 11 -16 11 -7 -2 6
-10 4 -9 -6 2 -9 9 -19 14 -23 11 -3 -4 -6 -1 -6 6 0 7 -5 9 -11 5 -6 -3 -14
-3 -18 2 -3 5 -46 6 -96 3z m77 -62 c29 -45 -14 -170 -76 -224 -36 -33 -81
-51 -93 -39 -4 4 13 55 37 114 77 191 68 175 98 167 15 -4 30 -12 34 -18z"/>
<path d="M4080 2783 c-61 -9 -110 -62 -110 -120 0 -41 21 -57 65 -49 27 5 39
2 55 -14 26 -26 22 -58 -22 -148 -32 -69 -75 -104 -117 -99 -35 5 -36 34 0 42
33 8 76 55 85 93 3 15 7 32 8 37 2 6 -4 16 -13 23 -10 8 -10 11 -2 6 9 -4 12
-3 8 3 -8 13 -53 8 -84 -8 -12 -7 -34 -29 -49 -50 -55 -80 -51 -169 11 -195
37 -15 124 -6 172 20 41 21 99 85 117 129 17 43 29 140 16 132 -11 -7 -22 24
-13 37 3 6 1 8 -4 5 -6 -4 -13 0 -17 8 -3 8 -12 12 -21 9 -8 -3 -15 -2 -15 4
0 5 -11 7 -25 4 -26 -5 -33 6 -14 25 15 15 19 91 5 101 -6 4 -22 6 -36 5z"/>
<path d="M3231 2728 c-80 -22 -142 -80 -193 -181 -93 -186 -3 -313 156 -219
31 19 32 19 48 -3 30 -40 109 -37 170 6 46 33 51 20 13 -37 -18 -27 -25 -50
-25 -86 0 -168 237 -112 334 80 27 53 176 421 176 435 0 4 -27 7 -61 5 l-61
-3 -63 -155 c-56 -139 -66 -157 -96 -172 -33 -17 -34 -17 -41 3 -6 14 5 51 34
122 42 103 57 190 36 203 -7 4 -8 3 -4 -4 5 -8 2 -10 -8 -6 -9 3 -14 10 -11
14 5 9 -32 10 -81 4 -40 -6 -67 -53 -34 -61 28 -8 25 -28 -21 -139 -46 -111
-65 -137 -108 -140 -39 -3 -37 9 33 178 31 75 56 142 56 147 0 15 -117 14
-126 -1 -5 -8 -10 -7 -18 3 -13 17 -59 20 -105 7z m99 -65 c0 -5 -23 -65 -51
-134 -55 -133 -74 -157 -131 -157 -26 0 -27 2 -24 47 4 72 80 210 129 238 24
14 77 17 77 6z m276 -382 c-24 -45 -76 -102 -104 -112 -19 -7 -28 -5 -39 8 -8
10 -11 12 -7 4 5 -10 3 -12 -5 -6 -16 9 -6 68 16 102 13 19 23 24 42 20 14 -3
44 1 66 7 22 7 41 12 43 10 2 -1 -4 -16 -12 -33z"/>
</g>
</svg>
