<?xml version="1.0" standalone="no"?>
<!DOCTYPE svg PUBLIC "-//W3C//DTD SVG 20010904//EN"
 "http://www.w3.org/TR/2001/REC-SVG-20010904/DTD/svg10.dtd">
<svg version="1.0" xmlns="http://www.w3.org/2000/svg"
 width="1125.000000pt" height="2436.000000pt" viewBox="0 0 1125.000000 2436.000000"
 preserveAspectRatio="xMidYMid meet">

<g transform="translate(0.000000,2436.000000) scale(0.100000,-0.100000)"
fill="#000000" stroke="none">
<path d="M10745 24346 c-95 -18 -42 -26 248 -33 l257 -6 0 26 0 27 -222 -1
c-124 -1 -250 -6 -283 -13z"/>
<path d="M4932 13368 c-15 -15 -16 -206 -2 -228 20 -29 30 12 30 122 0 106 -6
128 -28 106z"/>
<path d="M3705 13363 c-32 -8 -55 -34 -55 -62 0 -36 9 -46 55 -67 31 -15 40
-25 40 -44 0 -29 -36 -40 -61 -19 -13 10 -17 10 -25 -2 -13 -22 -11 -26 21
-39 37 -15 83 1 107 37 23 34 4 67 -52 93 -25 11 -45 27 -45 34 0 23 26 36 57
30 41 -8 55 22 17 36 -27 11 -27 11 -59 3z"/>
<path d="M4712 13248 c2 -92 6 -113 18 -113 9 0 17 14 21 39 7 44 21 56 65 56
59 0 86 69 42 110 -17 16 -35 20 -85 20 l-64 0 3 -112z m122 56 c8 -22 -11
-44 -39 -44 -27 0 -49 24 -41 45 8 21 72 20 80 -1z"/>
<path d="M6031 13311 c-11 -27 -21 -54 -21 -60 0 -6 -3 -11 -8 -11 -8 0 -32
-71 -32 -95 0 -23 18 -18 36 10 13 21 24 25 61 25 36 0 49 -5 65 -25 19 -24
48 -34 48 -16 0 8 -15 47 -47 121 -51 118 -69 127 -102 51z m57 -51 c17 -28 3
-50 -24 -40 -17 7 -20 15 -17 34 6 31 24 33 41 6z"/>
<path d="M6789 13332 c-35 -31 -50 -85 -35 -122 13 -33 46 -70 63 -70 7 0 21
-5 31 -11 14 -9 28 -6 64 11 84 39 100 123 37 188 -27 27 -39 32 -80 32 -39 0
-55 -5 -80 -28z m147 -18 c23 -24 34 -45 34 -66 0 -34 -34 -88 -56 -88 -8 0
-14 -4 -14 -10 0 -19 -53 -10 -86 15 -76 58 -39 184 55 185 26 0 41 -8 67 -36z"/>
<path d="M6837 13303 c-11 -10 -8 -113 3 -113 6 0 10 9 10 20 0 11 4 20 10 20
5 0 14 -9 20 -20 6 -11 16 -20 22 -20 7 0 7 4 0 13 -8 10 -7 21 4 42 14 27 14
31 -2 42 -22 16 -34 8 -27 -18 4 -16 2 -20 -8 -17 -8 3 -14 14 -14 25 0 24 -9
36 -18 26z"/>
<path d="M4492 13328 c-7 -7 -12 -17 -12 -23 0 -16 -48 -37 -55 -25 -3 5 -13
6 -21 3 -9 -3 -30 -6 -48 -7 -31 -1 -31 -2 -34 -59 -3 -57 10 -93 29 -81 5 3
9 18 9 34 0 49 20 79 56 86 54 10 64 1 64 -55 0 -53 15 -71 59 -71 27 0 27 26
1 33 -16 4 -20 14 -20 45 0 32 4 42 20 47 11 3 20 9 20 13 0 4 -9 13 -20 20
-11 7 -20 19 -20 26 0 21 -15 27 -28 14z"/>
<path d="M5400 13298 c-21 -28 -21 -32 -6 -43 11 -8 16 -27 16 -57 0 -49 13
-68 46 -68 31 0 39 17 14 30 -29 15 -29 90 0 97 22 6 27 23 7 23 -8 0 -19 11
-25 25 -15 33 -23 32 -52 -7z"/>
<path d="M3916 13283 c-4 -4 -21 -7 -39 -8 l-32 0 -3 -64 c-2 -44 1 -67 10
-72 20 -12 28 -1 28 40 0 87 60 94 70 8 3 -25 9 -50 13 -54 12 -11 27 18 27
54 0 47 9 63 36 63 22 0 24 -4 24 -49 0 -46 18 -80 33 -64 4 3 7 32 7 63 0 44
-5 61 -20 75 -17 15 -23 16 -50 5 -24 -10 -37 -10 -56 -1 -29 13 -38 14 -48 4z"/>
<path d="M4178 13279 c-26 -15 -22 -27 6 -22 13 3 32 0 43 -5 17 -10 17 -11
-2 -17 -55 -17 -85 -39 -85 -61 0 -31 16 -39 78 -39 51 0 52 1 58 33 17 88
-36 148 -98 111z m46 -75 c17 -6 23 -44 7 -44 -5 0 -16 -3 -25 -6 -21 -8 -32
22 -16 41 14 17 13 17 34 9z"/>
<path d="M5048 13283 c-31 -8 -20 -22 20 -25 49 -4 47 -18 -6 -36 -50 -16 -69
-47 -44 -74 12 -14 26 -17 66 -13 28 2 54 4 59 5 4 0 7 23 7 50 0 41 -5 56
-25 75 -23 24 -40 28 -77 18z m57 -97 c0 -28 -29 -43 -49 -26 -15 12 -15 14 1
32 21 23 48 20 48 -6z"/>
<path d="M5265 13280 c-11 -4 -32 -5 -47 -3 l-28 6 0 -71 c0 -51 4 -71 14 -75
20 -8 26 2 26 43 0 73 62 101 68 30 4 -58 12 -80 27 -80 24 0 21 122 -3 143
-20 19 -27 20 -57 7z"/>
<path d="M5575 13278 c-31 -17 -45 -39 -45 -74 0 -52 61 -88 114 -68 29 11 17
24 -23 24 -22 0 -42 4 -45 9 -9 14 21 33 51 31 47 -3 53 -1 53 24 0 27 -42 66
-69 66 -9 0 -25 -6 -36 -12z m61 -29 c7 -11 -12 -29 -31 -29 -5 0 -17 5 -25
10 -13 9 -13 11 0 20 20 13 47 13 56 -1z"/>
<path d="M6307 13283 c-4 -3 -20 -6 -37 -5 -16 0 -32 -3 -35 -8 -3 -5 -6 -52
-7 -105 -2 -124 23 -154 43 -50 4 16 11 19 37 17 19 -2 44 3 58 12 19 13 24
25 24 61 0 35 -5 47 -26 64 -27 21 -46 26 -57 14z m41 -66 c6 -53 -38 -75 -73
-37 -15 17 -16 24 -7 46 10 21 18 25 45 22 27 -2 33 -8 35 -31z"/>
<path d="M6485 13281 l-40 -6 -3 -90 c-3 -103 2 -135 23 -135 10 0 15 11 15
33 0 47 12 62 39 48 38 -21 91 31 91 90 0 25 -44 69 -67 68 -10 -1 -36 -5 -58
-8z m79 -57 c13 -51 -33 -84 -68 -48 -22 21 -20 50 5 67 27 20 56 11 63 -19z"/>
<path d="M5735 13272 c-7 -8 -6 -127 2 -135 13 -14 33 17 33 52 0 43 8 56 38
65 12 4 20 11 17 15 -5 9 -81 11 -90 3z"/>
<path d="M7177 13253 c-7 -12 -42 -75 -82 -147 -19 -35 -35 -71 -35 -80 0 -14
123 -16 1368 -18 l1367 -3 3 -1085 c1 -597 0 -1095 -3 -1107 l-5 -23 -3315 0
-3314 0 -12 -22 c-6 -13 -36 -62 -66 -111 -31 -49 -53 -94 -49 -102 5 -13 421
-15 3498 -15 1921 0 3499 4 3506 8 10 7 12 285 10 1358 l-3 1349 -1432 3
c-787 1 -1434 -1 -1436 -5z"/>
<path d="M2805 13107 c-55 -17 -60 -21 -84 -72 -26 -56 -26 -55 3 -55 36 0 69
-32 68 -66 0 -16 -12 -56 -27 -89 -14 -33 -30 -69 -34 -80 -5 -11 -18 -42 -29
-70 -84 -207 -179 -441 -225 -551 -71 -171 -83 -220 -67 -281 22 -94 71 -126
190 -126 78 0 93 3 160 36 41 20 98 56 127 81 28 26 55 46 60 46 4 0 16 -20
26 -44 35 -84 96 -120 205 -119 85 1 151 24 238 84 44 30 47 31 57 13 6 -10
27 -35 47 -55 30 -28 48 -37 87 -42 101 -12 209 18 291 81 46 35 72 36 72 3 0
-22 51 -69 83 -75 67 -14 96 -15 159 -9 70 6 70 6 99 52 34 53 34 75 -1 79
-29 5 -60 37 -60 63 0 17 35 120 60 177 23 51 30 70 50 121 12 30 30 75 42
100 11 24 27 63 34 85 8 21 20 46 26 53 19 23 85 53 117 53 29 0 61 -22 61
-42 0 -5 -42 -112 -94 -237 -114 -277 -124 -315 -108 -377 26 -97 75 -128 195
-127 92 1 162 25 246 87 26 19 51 32 56 28 6 -4 18 -23 28 -42 27 -55 73 -74
170 -73 92 1 161 25 248 88 l48 34 28 -41 c43 -65 81 -82 178 -81 68 1 92 6
149 32 37 16 84 44 106 61 21 16 40 30 42 30 3 0 18 -20 33 -44 41 -65 84 -81
211 -79 154 3 248 44 368 161 87 86 153 193 257 419 16 35 29 65 29 67 0 3 29
66 127 273 29 63 22 68 -113 71 -145 3 -144 4 -205 -133 -22 -49 -46 -103 -54
-120 -46 -102 -65 -146 -85 -190 -12 -27 -28 -65 -36 -82 -34 -76 -65 -168
-72 -216 -6 -47 -10 -54 -44 -70 -32 -16 -43 -17 -74 -7 l-37 12 6 52 c8 80
65 247 147 431 41 92 57 255 25 255 -8 0 -15 5 -15 11 0 50 -158 87 -258 60
-32 -9 -48 -21 -67 -51 -33 -53 -32 -67 9 -84 47 -20 60 -47 46 -94 -16 -53
-62 -165 -72 -177 -4 -5 -8 -15 -8 -22 0 -7 -11 -36 -23 -65 -13 -29 -30 -69
-36 -88 -41 -113 -58 -143 -98 -170 -28 -19 -49 -25 -89 -24 -30 0 -56 3 -60
7 -10 9 12 73 96 277 39 96 80 201 91 234 23 72 26 184 4 192 -8 3 -17 14 -20
25 -4 10 -15 19 -25 19 -10 0 -20 6 -22 13 -3 8 -35 12 -110 12 -119 0 -133
-7 -169 -78 -23 -43 -20 -52 18 -62 15 -3 34 -11 40 -17 21 -17 15 -72 -18
-149 -17 -41 -37 -87 -44 -104 -7 -16 -25 -61 -40 -100 -72 -179 -96 -214
-168 -249 -41 -20 -61 -24 -94 -19 -24 3 -43 11 -43 17 0 15 27 90 50 140 10
23 42 100 70 171 55 136 65 162 98 235 10 25 23 56 27 70 4 14 21 53 36 88 16
34 29 67 29 72 0 18 27 25 120 30 l95 5 33 50 c48 74 44 79 -71 83 -61 2 -97
7 -97 14 0 5 8 32 17 59 10 26 14 51 10 55 -4 4 -31 2 -59 -4 -29 -6 -82 -16
-118 -22 -83 -14 -121 -33 -142 -70 -15 -26 -23 -30 -63 -30 -26 0 -54 -4 -64
-10 -22 -11 -74 -107 -66 -120 4 -6 29 -10 56 -10 58 0 69 -14 45 -61 -9 -18
-16 -36 -16 -40 0 -5 -12 -34 -26 -66 -14 -32 -30 -67 -34 -78 -4 -11 -15 -36
-23 -55 -9 -19 -48 -114 -87 -210 -39 -96 -85 -197 -103 -223 -42 -62 -112
-99 -174 -90 -26 3 -43 11 -43 19 0 18 28 99 53 154 11 25 49 116 83 203 59
145 64 165 64 233 0 70 -2 77 -32 109 -17 19 -37 35 -44 35 -7 0 -14 6 -16 13
-3 8 -32 12 -99 12 -93 0 -95 0 -181 -47 -95 -52 -108 -56 -108 -33 0 16 -34
55 -49 55 -5 0 -11 6 -13 13 -3 8 -36 12 -115 12 -125 0 -135 -5 -165 -73 -20
-45 -17 -62 10 -62 29 0 62 -30 62 -55 0 -22 -22 -89 -52 -155 -6 -14 -14 -34
-18 -45 -5 -11 -17 -41 -29 -67 -12 -26 -21 -51 -21 -54 0 -6 -5 -17 -50 -119
-40 -90 -107 -144 -190 -150 l-50 -4 0 37 c0 38 33 122 184 482 47 113 86 215
86 227 0 19 -7 22 -55 28 -81 10 -185 2 -225 -18 -21 -11 -36 -14 -38 -7 -2 5
-10 10 -17 10 -7 0 -15 7 -18 14 -8 21 -185 14 -247 -8 -116 -43 -229 -131
-318 -248 -47 -63 -142 -240 -142 -267 0 -6 -4 -19 -9 -29 -5 -9 -14 -36 -20
-59 -28 -104 -171 -196 -233 -149 -11 8 -15 21 -11 37 4 21 143 373 178 454
20 47 120 292 148 365 38 99 53 178 39 201 -7 10 -12 28 -12 39 0 11 -7 20
-16 20 -8 0 -12 5 -9 10 3 6 -1 10 -9 10 -9 0 -16 4 -16 9 0 20 -163 34 -215
18z m879 -543 c9 -3 16 -16 16 -28 0 -12 -36 -110 -81 -217 -76 -183 -119
-292 -133 -332 -3 -9 -33 -35 -67 -57 -54 -35 -70 -40 -119 -40 -67 0 -70 4
-70 91 0 72 23 143 89 274 85 171 173 278 251 308 21 8 95 8 114 1z"/>
<path d="M2120 13053 c-139 -10 -326 -49 -390 -82 -19 -10 -50 -38 -68 -62
-18 -24 -39 -51 -46 -60 -7 -8 -21 -29 -31 -46 -17 -30 -17 -33 -1 -57 9 -14
21 -26 25 -26 5 0 30 16 55 34 81 63 255 142 285 131 10 -4 -6 -18 -52 -46
-72 -43 -105 -81 -126 -144 -8 -22 -25 -65 -38 -95 -27 -60 -27 -60 -73 -175
-18 -44 -38 -93 -45 -110 -7 -16 -23 -55 -35 -85 -12 -30 -28 -68 -35 -85 -70
-167 -85 -218 -85 -291 0 -52 4 -67 25 -93 64 -75 265 -80 320 -7 45 60 42 95
-8 96 -10 0 -25 7 -34 15 -26 26 -10 84 68 261 l18 41 116 -5 c136 -6 198 5
300 54 139 67 265 222 308 380 19 67 24 244 7 244 -5 0 -10 14 -10 30 0 20 -5
30 -15 30 -8 0 -15 6 -15 13 -1 15 -56 77 -70 77 -5 0 -10 5 -10 10 0 6 -9 10
-21 10 -14 0 -19 5 -16 14 4 9 0 12 -12 9 -10 -3 -40 3 -66 12 -45 15 -101 17
-225 8z m161 -126 c51 -34 61 -60 55 -147 -3 -41 -11 -93 -19 -115 -17 -48
-59 -138 -67 -145 -3 -3 -14 -18 -25 -35 -64 -101 -188 -185 -272 -185 -41 0
-44 2 -38 23 9 31 44 123 70 182 12 28 55 131 95 230 41 99 80 188 88 198 21
24 72 21 113 -6z"/>
<path d="M9243 12814 c-141 -70 -226 -278 -147 -358 30 -29 60 -32 127 -14
113 30 180 -52 147 -179 -53 -202 -148 -351 -257 -404 -35 -17 -55 -20 -95
-16 -28 4 -52 8 -53 9 -1 2 -5 17 -8 35 -5 27 -3 33 16 38 87 23 106 33 157
85 64 63 95 122 103 198 5 41 3 54 -8 59 -8 3 -15 10 -15 15 0 6 -10 19 -22
29 -74 65 -230 -39 -314 -209 -37 -73 -39 -82 -39 -172 0 -109 13 -142 72
-187 35 -27 39 -28 152 -26 97 1 129 6 196 28 177 60 304 193 370 390 30 92
36 229 9 239 -10 4 -13 13 -9 26 5 14 2 20 -9 20 -9 0 -16 9 -16 20 0 11 -7
20 -15 20 -8 0 -15 7 -15 15 0 8 -3 14 -7 14 -20 -3 -34 2 -28 11 4 6 -6 10
-24 10 -16 0 -33 5 -36 10 -3 6 -28 10 -56 10 -56 0 -60 8 -28 60 12 19 26 49
31 65 9 31 0 145 -11 143 -14 -3 -41 15 -35 23 9 15 -99 9 -133 -7z"/>
<path d="M7410 12711 c-190 -42 -362 -195 -472 -421 -65 -134 -88 -219 -88
-321 1 -108 32 -179 99 -223 40 -27 51 -29 130 -29 93 1 140 17 238 84 23 16
44 29 47 29 3 0 12 -15 21 -33 26 -55 84 -81 180 -80 91 1 160 26 246 89 27
19 53 33 59 29 19 -12 10 -47 -23 -88 -60 -75 -81 -132 -85 -232 -3 -87 -2
-92 28 -137 88 -132 313 -117 517 33 107 80 201 217 286 419 50 120 174 423
202 495 28 72 50 127 103 260 27 66 37 103 31 110 -16 17 -243 13 -263 -4 -20
-17 -31 -40 -116 -251 -35 -85 -71 -173 -80 -195 -10 -22 -32 -76 -50 -120
-18 -44 -38 -93 -46 -110 -18 -38 -70 -74 -126 -87 -36 -8 -44 -6 -55 8 -7 10
-13 28 -13 41 0 13 42 128 93 256 98 243 129 349 108 370 -6 6 -11 18 -11 27
0 18 -40 60 -57 60 -6 0 -13 6 -16 13 -5 16 -203 16 -234 -1 -24 -13 -68 -96
-59 -111 4 -5 19 -12 35 -16 16 -3 35 -13 42 -21 15 -18 7 -76 -19 -134 -11
-25 -30 -70 -42 -100 -27 -68 -46 -111 -103 -241 -42 -95 -126 -156 -198 -144
-36 6 -39 9 -39 39 0 27 57 180 100 271 5 11 19 45 31 75 20 53 29 75 65 157
47 104 74 178 74 199 0 19 -7 24 -36 30 -55 10 -210 -3 -246 -20 -36 -19 -41
-20 -33 -6 3 6 -3 10 -14 10 -12 0 -21 6 -21 13 0 14 -133 20 -190 8z m174
-147 c17 -7 21 -44 7 -72 -14 -27 -28 -62 -62 -147 -17 -44 -39 -98 -48 -120
-10 -22 -37 -88 -60 -147 -23 -58 -50 -113 -59 -121 -42 -38 -116 -67 -167
-67 -62 0 -65 4 -65 93 0 85 33 170 155 394 31 59 103 137 149 164 50 28 112
38 150 23z m660 -866 c-76 -141 -153 -231 -229 -267 -56 -26 -110 -29 -101 -5
4 12 2 15 -9 10 -38 -14 -47 91 -15 176 11 29 30 65 43 79 21 25 27 27 112 26
85 -1 169 18 200 45 5 4 13 4 18 -1 6 -6 -2 -30 -19 -63z"/>
<path d="M11161 5901 c-15 -10 -7 -13 57 -26 28 -6 32 -4 32 14 0 18 -6 21
-37 21 -21 0 -44 -4 -52 -9z"/>
<path d="M1263 103 c9 -2 25 -2 35 0 9 3 1 5 -18 5 -19 0 -27 -2 -17 -5z"/>
<path d="M1088 93 c6 -2 18 -2 25 0 6 3 1 5 -13 5 -14 0 -19 -2 -12 -5z"/>
<path d="M923 73 c15 -2 39 -2 55 0 15 2 2 4 -28 4 -30 0 -43 -2 -27 -4z"/>
<path d="M753 63 c20 -2 54 -2 75 0 20 2 3 4 -38 4 -41 0 -58 -2 -37 -4z"/>
<path d="M170 15 l-115 -12 128 -2 c95 -1 128 2 125 11 -6 16 -9 16 -138 3z"/>
</g>
</svg>
